<svg width="12" height="12" viewBox="0 0 12 12" fill="none" xmlns="http://www.w3.org/2000/svg">
<path d="M6.7033 6.00349L11.8472 0.859581C12.0458 0.667841 12.0513 0.351477 11.8595 0.152944C11.6678 -0.0455892 11.3514 -0.0510942 11.1529 0.140645C11.1487 0.144657 11.1446 0.148756 11.1406 0.152944L5.99664 5.29685L0.852724 0.152915C0.654191 -0.038825 0.337826 -0.03332 0.146086 0.165213C-0.0409683 0.358885 -0.0409683 0.665909 0.146086 0.859581L5.29 6.00349L0.146086 11.1474C-0.0490209 11.3425 -0.0490209 11.6589 0.146086 11.854C0.341223 12.0491 0.657587 12.0491 0.852724 11.854L5.99664 6.71013L11.1406 11.854C11.3391 12.0458 11.6554 12.0403 11.8472 11.8417C12.0342 11.6481 12.0342 11.341 11.8472 11.1474L6.7033 6.00349Z" fill="#C1C1C1"/>
</svg>
