<svg width="198" height="60" viewBox="0 0 198 60" fill="none" xmlns="http://www.w3.org/2000/svg">
<path d="M82.2609 14.192C84.4449 14.248 86.1809 14.6307 87.4689 15.34C88.7756 16.0307 89.7089 16.9267 90.2689 18.028C90.8476 19.1293 91.1369 20.3333 91.1369 21.64C91.1369 22.48 90.9876 23.3387 90.6889 24.216C90.4089 25.0933 89.9236 25.9053 89.2329 26.652C88.5609 27.38 87.6556 27.9773 86.5169 28.444C85.3782 28.9107 83.9596 29.1627 82.2609 29.2V32.28H78.4529V29.2C76.7356 29.1627 75.2982 28.9107 74.1409 28.444C73.0022 27.9773 72.0969 27.3707 71.4249 26.624C70.7529 25.8773 70.2769 25.0747 69.9969 24.216C69.7169 23.3387 69.5769 22.48 69.5769 21.64C69.5769 20.3333 69.8569 19.1293 70.4169 18.028C70.9956 16.9267 71.9289 16.0307 73.2169 15.34C74.5236 14.6307 76.2689 14.248 78.4529 14.192V11.728H82.2609V14.192ZM78.4529 17.496C76.6422 17.5707 75.3729 17.9907 74.6449 18.756C73.9169 19.5027 73.5529 20.4547 73.5529 21.612C73.5529 22.8627 73.9449 23.88 74.7289 24.664C75.5129 25.4293 76.7542 25.8493 78.4529 25.924V17.496ZM82.2609 25.924C83.9782 25.8493 85.2196 25.4293 85.9849 24.664C86.7689 23.88 87.1609 22.8627 87.1609 21.612C87.1609 20.4547 86.7969 19.5027 86.0689 18.756C85.3596 17.9907 84.0902 17.5707 82.2609 17.496V25.924ZM101.311 12.008C103.887 12.008 105.763 12.568 106.939 13.688C108.133 14.7893 108.731 16.3107 108.731 18.252C108.731 19.4093 108.488 20.5013 108.003 21.528C107.517 22.536 106.705 23.348 105.567 23.964C104.447 24.58 102.916 24.888 100.975 24.888H99.1547V32H94.9267V12.008H101.311ZM101.087 15.48H99.1547V21.416H100.555C101.749 21.416 102.692 21.1827 103.383 20.716C104.092 20.2307 104.447 19.456 104.447 18.392C104.447 16.4507 103.327 15.48 101.087 15.48ZM124.017 32H112.509V12.008H124.017V15.48H116.737V19.876H123.513V23.348H116.737V28.5H124.017V32ZM153.321 32H128.177V12.008H132.405V28.472H138.621V12.008H142.877V28.472H149.093V12.008H153.321V32ZM176.508 21.976C176.508 24.048 176.163 25.8587 175.472 27.408C174.8 28.9387 173.764 30.1333 172.364 30.992C170.964 31.8507 169.172 32.28 166.988 32.28C164.823 32.28 163.031 31.8507 161.612 30.992C160.212 30.1333 159.167 28.9293 158.476 27.38C157.804 25.8307 157.468 24.02 157.468 21.948C157.468 19.876 157.804 18.0747 158.476 16.544C159.167 15.0133 160.212 13.828 161.612 12.988C163.031 12.1293 164.832 11.7 167.016 11.7C169.182 11.7 170.964 12.1293 172.364 12.988C173.764 13.828 174.8 15.0227 175.472 16.572C176.163 18.1027 176.508 19.904 176.508 21.976ZM161.92 21.976C161.92 24.0667 162.322 25.7187 163.124 26.932C163.927 28.1267 165.215 28.724 166.988 28.724C168.799 28.724 170.096 28.1267 170.88 26.932C171.664 25.7187 172.056 24.0667 172.056 21.976C172.056 19.8667 171.664 18.2147 170.88 17.02C170.096 15.8253 168.808 15.228 167.016 15.228C165.224 15.228 163.927 15.8253 163.124 17.02C162.322 18.2147 161.92 19.8667 161.92 21.976ZM196.945 32H192.129L184.877 21.864V32H180.649V12.008H184.877V21.696L192.045 12.008H196.553L189.273 21.612L196.945 32Z" fill="#63A60E"/>
<path d="M87.1165 45.704C87.1165 46.592 86.9685 47.368 86.6725 48.032C86.3845 48.688 85.9405 49.2 85.3405 49.568C84.7405 49.936 83.9725 50.12 83.0365 50.12C82.1085 50.12 81.3405 49.936 80.7325 49.568C80.1325 49.2 79.6845 48.684 79.3885 48.02C79.1005 47.356 78.9565 46.58 78.9565 45.692C78.9565 44.804 79.1005 44.032 79.3885 43.376C79.6845 42.72 80.1325 42.212 80.7325 41.852C81.3405 41.484 82.1125 41.3 83.0485 41.3C83.9765 41.3 84.7405 41.484 85.3405 41.852C85.9405 42.212 86.3845 42.724 86.6725 43.388C86.9685 44.044 87.1165 44.816 87.1165 45.704ZM80.8645 45.704C80.8645 46.6 81.0365 47.308 81.3805 47.828C81.7245 48.34 82.2765 48.596 83.0365 48.596C83.8125 48.596 84.3685 48.34 84.7045 47.828C85.0405 47.308 85.2085 46.6 85.2085 45.704C85.2085 44.8 85.0405 44.092 84.7045 43.58C84.3685 43.068 83.8165 42.812 83.0485 42.812C82.2805 42.812 81.7245 43.068 81.3805 43.58C81.0365 44.092 80.8645 44.8 80.8645 45.704ZM95.9113 50H94.0993V46.304H90.7033V50H88.8913V41.432H90.7033V44.792H94.0993V41.432H95.9113V50ZM104.847 50H103.035V42.944H100.935C100.887 43.312 100.835 43.712 100.779 44.144C100.731 44.576 100.675 45.016 100.611 45.464C100.555 45.904 100.495 46.324 100.431 46.724C100.367 47.116 100.303 47.464 100.239 47.768C100.135 48.264 99.9951 48.688 99.8191 49.04C99.6511 49.392 99.4151 49.66 99.1111 49.844C98.8151 50.028 98.4271 50.12 97.9471 50.12C97.6351 50.12 97.3471 50.076 97.0831 49.988V48.5C97.1871 48.532 97.2871 48.56 97.3831 48.584C97.4871 48.608 97.5991 48.62 97.7191 48.62C97.9511 48.62 98.1271 48.5 98.2471 48.26C98.3751 48.012 98.5031 47.552 98.6311 46.88C98.6791 46.624 98.7471 46.224 98.8351 45.68C98.9231 45.136 99.0191 44.5 99.1231 43.772C99.2351 43.036 99.3391 42.256 99.4351 41.432H104.847V50ZM112.252 50L111.628 47.96H108.508L107.884 50H105.928L108.952 41.396H111.172L114.208 50H112.252ZM110.572 44.444C110.532 44.308 110.48 44.136 110.416 43.928C110.352 43.72 110.288 43.508 110.224 43.292C110.16 43.076 110.108 42.888 110.068 42.728C110.028 42.888 109.972 43.088 109.9 43.328C109.836 43.56 109.772 43.784 109.708 44C109.652 44.208 109.608 44.356 109.576 44.444L108.964 46.436H111.196L110.572 44.444ZM122.194 38.612C122.154 39.028 122.038 39.396 121.846 39.716C121.654 40.028 121.354 40.272 120.946 40.448C120.538 40.624 119.99 40.712 119.302 40.712C118.598 40.712 118.046 40.628 117.646 40.46C117.254 40.284 116.974 40.04 116.806 39.728C116.638 39.416 116.538 39.044 116.506 38.612H118.102C118.142 39.052 118.254 39.344 118.438 39.488C118.622 39.632 118.922 39.704 119.338 39.704C119.682 39.704 119.962 39.628 120.178 39.476C120.402 39.316 120.534 39.028 120.574 38.612H122.194ZM115.294 41.432H116.926V45.572C116.926 45.772 116.922 45.996 116.914 46.244C116.906 46.492 116.898 46.736 116.89 46.976C116.882 47.208 116.874 47.412 116.866 47.588C116.858 47.756 116.85 47.872 116.842 47.936H116.878L120.838 41.432H123.01V50H121.39V45.884C121.39 45.668 121.394 45.432 121.402 45.176C121.41 44.912 121.418 44.66 121.426 44.42C121.442 44.18 121.454 43.972 121.462 43.796C121.478 43.612 121.49 43.492 121.498 43.436H121.45L117.478 50H115.294V41.432ZM132.193 50H130.381V46.304H126.985V50H125.173V41.432H126.985V44.792H130.381V41.432H132.193V50ZM133.856 47.426C133.828 47.322 133.81 47.21 133.802 47.09C133.794 46.97 133.79 46.868 133.79 46.784C133.79 46.7 133.794 46.598 133.802 46.478C133.81 46.358 133.828 46.244 133.856 46.136H137.042C137.07 46.244 137.088 46.358 137.096 46.478C137.104 46.598 137.108 46.7 137.108 46.784C137.108 46.868 137.104 46.97 137.096 47.09C137.088 47.21 137.07 47.322 137.042 47.426H133.856ZM142.332 50L140.268 43.28H140.22C140.228 43.44 140.24 43.68 140.256 44C140.272 44.32 140.288 44.664 140.304 45.032C140.32 45.392 140.328 45.72 140.328 46.016V50H138.708V41.432H141.18L143.208 47.984H143.244L145.392 41.432H147.864V50H146.172V45.944C146.172 45.672 146.176 45.36 146.184 45.008C146.2 44.656 146.212 44.324 146.22 44.012C146.236 43.692 146.248 43.452 146.256 43.292H146.208L144 50H142.332ZM155.272 50L154.648 47.96H151.528L150.904 50H148.948L151.972 41.396H154.192L157.228 50H155.272ZM153.592 44.444C153.552 44.308 153.5 44.136 153.436 43.928C153.372 43.72 153.308 43.508 153.244 43.292C153.18 43.076 153.128 42.888 153.088 42.728C153.048 42.888 152.992 43.088 152.92 43.328C152.856 43.56 152.792 43.784 152.728 44C152.672 44.208 152.628 44.356 152.596 44.444L151.984 46.436H154.216L153.592 44.444ZM161.049 41.432C162.153 41.432 162.957 41.672 163.461 42.152C163.973 42.624 164.229 43.276 164.229 44.108C164.229 44.604 164.125 45.072 163.917 45.512C163.709 45.944 163.361 46.292 162.873 46.556C162.393 46.82 161.737 46.952 160.905 46.952H160.125V50H158.313V41.432H161.049ZM160.953 42.92H160.125V45.464H160.725C161.237 45.464 161.641 45.364 161.937 45.164C162.241 44.956 162.393 44.624 162.393 44.168C162.393 43.336 161.913 42.92 160.953 42.92ZM172.832 50H170.768L167.66 45.656V50H165.848V41.432H167.66V45.584L170.732 41.432H172.664L169.544 45.548L172.832 50ZM178.843 50H173.911V41.432H178.843V42.92H175.723V44.804H178.627V46.292H175.723V48.5H178.843V50ZM183.926 50H182.114V42.944H179.786V41.432H186.254V42.944H183.926V50Z" fill="#63A60E"/>
<path opacity="0.2" d="M54.6482 59.0669C54.6482 58.5552 43.174 58.1338 29.0366 58.1338C14.8993 58.1338 3.42505 58.5552 3.42505 59.0669C3.42505 59.5786 14.8993 60 29.0366 60C43.2069 60 54.6482 59.5786 54.6482 59.0669Z" fill="#5D5D5D"/>
<path d="M29.3985 11.8098C40.544 11.8098 49.5853 20.0873 49.5853 30.2913V48.7727H29.3985C18.253 48.7727 9.21167 40.4952 9.21167 30.2913V11.8098H29.3985Z" fill="#63A60E"/>
<path opacity="0.3" d="M46.692 20.7796C45.0153 22.5555 43.9961 24.8732 43.9961 27.4016C43.9961 31.1641 46.2318 34.445 49.5524 36.2209V30.2912C49.5524 26.8297 48.5332 23.5789 46.692 20.7796Z" fill="#63A60E"/>
<path d="M38.7685 13.9469C35.6122 15.6024 33.5081 18.7027 33.5081 22.2846C33.5081 27.5822 38.2095 31.8865 43.996 31.8865C46.0344 31.8865 47.9413 31.3447 49.5523 30.4116V30.2912C49.5523 23.1876 45.1796 17.0171 38.7685 13.9469Z" fill="#63A60E"/>
<path opacity="0.5" d="M22.9216 15.3909C17.7269 15.3909 12.9597 17.0464 9.21167 19.8457V30.3205C9.21167 40.5245 18.253 48.802 29.3985 48.802H39.0645C42.5824 45.2502 44.7194 40.5546 44.7194 35.3773C44.7194 24.3306 34.9548 15.3909 22.9216 15.3909Z" fill="#E0EDCF"/>
<path d="M49.5524 48.7425L29.3985 48.7726C18.253 48.7726 9.21167 40.4951 9.21167 30.2912V11.8398L49.5524 48.7425Z" fill="#63A60E"/>
<path opacity="0.3" d="M12.335 18.4317C12.335 32.4584 24.7627 43.8061 40.0507 43.8061C41.3658 43.8061 42.648 43.7158 43.8974 43.5653L12.598 14.9401C12.4336 16.0839 12.335 17.2578 12.335 18.4317Z" fill="#63A60E"/>
<path opacity="0.3" d="M49.5523 48.7726L9.37598 11.9903C14.1103 18.4619 19.568 25.0237 25.1243 30.4417C29.4641 34.6557 41.9905 44.077 49.5523 48.7726Z" fill="#63A60E"/>
<path opacity="0.3" d="M22.3956 23.8799L9.21167 11.8398V30.3213C9.21167 38.4784 14.9981 45.4014 22.9874 47.8395C19.5681 44.679 17.4639 40.3446 17.4639 35.5888C17.4639 31.0738 19.3379 26.9802 22.3956 23.8799Z" fill="#63A60E"/>
<path opacity="0.3" d="M40.3467 40.3447C36.9274 44.1674 31.7328 46.6356 25.9135 46.6356C22.0339 46.6356 18.4174 45.552 15.4255 43.6858C19.0421 46.8463 23.9408 48.8028 29.3656 48.8028H49.5524V48.7727L40.3467 40.3447Z" fill="#63A60E"/>
<path opacity="0.3" d="M10.3953 22.8866C10.3953 19.9067 10.9542 17.017 12.0063 14.3682L9.21167 11.8398V30.3213C9.21167 40.5252 18.253 48.8027 29.3985 48.8027H49.5853V48.7726L47.5797 46.9365C44.6536 47.8997 41.5303 48.4114 38.2425 48.4114C22.8558 48.3813 10.3953 36.9734 10.3953 22.8866Z" fill="#E0EDCF"/>
<path d="M49.2235 52.3546C50.6372 51.9934 52.1167 52.776 52.4784 54.0703C52.8729 55.3646 52.0181 56.7191 50.5715 57.0502C49.1577 57.4114 47.6782 56.6288 47.3166 55.3345C46.9549 54.0402 47.8097 52.7158 49.2235 52.3546ZM48.6974 50.5185C46.1659 51.1506 44.6535 53.4984 45.3439 55.8161C46.0015 58.1338 48.5988 59.5184 51.1304 58.8863C53.662 58.2542 55.1743 55.8763 54.4839 53.5887C53.8263 51.271 51.229 49.9165 48.6974 50.5185Z" fill="#63A60E"/>
<path opacity="0.5" d="M52.0505 56.1768C51.6888 56.5982 51.1956 56.9293 50.6038 57.0798C49.1901 57.441 47.7106 56.6584 47.349 55.3641C47.086 54.4009 47.4476 53.4377 48.2367 52.8658C47.8421 52.3541 47.5134 51.7822 47.1846 51.2103C45.6065 52.2337 44.8174 54.0698 45.3434 55.8758C46.001 58.1935 48.5983 59.5781 51.1299 58.946C52.3135 58.645 53.2669 57.9828 53.8916 57.1099C53.2669 56.8089 52.6423 56.5079 52.0505 56.1768Z" fill="#63A60E"/>
<path d="M10.1648 52.3546C11.5785 52.0235 13.058 52.8061 13.4196 54.1004C13.7813 55.3947 12.9265 56.7492 11.5127 57.0803C10.099 57.4114 8.61952 56.6288 8.25787 55.3345C7.89622 54.0402 8.75103 52.6857 10.1648 52.3546ZM9.63872 50.5185C7.10716 51.1205 5.59479 53.4984 6.25234 55.8161C6.90989 58.1338 9.50721 59.5184 12.0388 58.9164C14.5704 58.3144 16.0827 55.9365 15.458 53.6188C14.7676 51.3011 12.1703 49.9165 9.63872 50.5185Z" fill="#63A60E"/>
<path opacity="0.5" d="M12.9597 56.207C12.598 56.6284 12.1049 56.9595 11.5131 57.0799C10.0993 57.411 8.61984 56.6284 8.25819 55.3341C7.99517 54.3709 8.3897 53.4077 9.14588 52.8358C8.75135 52.3241 8.42258 51.7522 8.12668 51.1803C6.54856 52.1736 5.72662 54.0097 6.25266 55.8157C6.91021 58.1334 9.50754 59.518 12.0391 58.916C13.2227 58.6451 14.209 57.9528 14.8008 57.0799C14.1433 56.8391 13.5515 56.5381 12.9597 56.207Z" fill="#63A60E"/>
<path d="M10.4938 10.5455C9.86915 10.5455 9.34311 10.0639 9.34311 9.49205C9.34311 7.02384 8.58693 5.15763 7.14031 3.92353C4.80601 1.90682 1.28812 2.11752 1.25524 2.11752C0.630565 2.17772 0.071647 1.72622 0.00589198 1.15432C-0.0598631 0.582418 0.4333 0.0707164 1.05797 0.0105162C1.25524 0.0105162 5.59507 -0.290485 8.68556 2.32822C10.6582 3.98373 11.6445 6.39174 11.6445 9.46194C11.6445 10.0639 11.1514 10.5455 10.4938 10.5455Z" fill="#63A60E"/>
</svg>
