<svg width="16" height="16" viewBox="0 0 16 16" fill="none" xmlns="http://www.w3.org/2000/svg">
<g clip-path="url(#clip0)">
<path d="M0.0229578 6.16426C0.0780821 5.99454 0.224738 5.87085 0.401299 5.84523L5.36137 5.12445L7.57965 0.629872C7.65858 0.469872 7.82155 0.368591 7.99996 0.368591C8.17839 0.368591 8.34133 0.469872 8.4203 0.629872L10.6387 5.12445L15.5986 5.84523C15.7752 5.87085 15.9219 5.99454 15.977 6.16422C16.0322 6.33394 15.9862 6.52022 15.8584 6.64475L12.2694 10.1433L13.1165 15.0834C13.1467 15.2593 13.0744 15.4369 12.9301 15.5418C12.8484 15.6012 12.7517 15.6313 12.6545 15.6313C12.5799 15.6313 12.505 15.6136 12.4364 15.5775L7.99999 13.2451L3.56372 15.5775C3.40576 15.6605 3.21441 15.6467 3.07007 15.5418C2.92573 15.4369 2.85338 15.2592 2.88354 15.0833L3.73094 10.1433L0.141551 6.64472C0.0138016 6.52022 -0.0322304 6.33394 0.0229578 6.16426Z" fill="#FFB800"/>
</g>
<defs>
<clipPath id="clip0">
<rect width="16" height="16" fill="white" transform="matrix(-1 0 0 1 16 0)"/>
</clipPath>
</defs>
</svg>
