<?xml version="1.0" encoding="utf-8"?><svg viewBox="0 0 200 60" xmlns="http://www.w3.org/2000/svg" xmlns:xlink="http://www.w3.org/1999/xlink"><style>:root>svg{display:none}:root>svg:target{display:block}</style><svg viewBox="0 0 50 50" id="24-hours" xmlns="http://www.w3.org/2000/svg"><g clip-path="url(#aaclip0)"><path d="M48.866 17.536a1.465 1.465 0 00-2.796.873c.664 2.125 1 4.343 1 6.591 0 12.17-9.9 22.07-22.07 22.07S2.93 37.17 2.93 25 12.83 2.93 25 2.93a22.065 22.065 0 0115.165 6.037l-3.141-.783a1.465 1.465 0 00-.709 2.843l8.44 2.103.012.003a1.466 1.466 0 001.386-.397c.364-.37.505-.904.371-1.405l-2.242-8.388a1.465 1.465 0 00-2.83.757l.878 3.284A24.992 24.992 0 0025 0C18.322 0 12.044 2.6 7.322 7.322 2.6 12.044 0 18.322 0 25c0 6.678 2.6 12.956 7.322 17.678A24.837 24.837 0 0025 50c6.678 0 12.956-2.6 17.678-7.322C47.4 37.956 50 31.678 50 25c0-2.545-.382-5.056-1.134-7.464z"/><path d="M28.337 26.192h-.123v-7.46a1.465 1.465 0 00-2.644-.869l-6.558 8.91a1.464 1.464 0 001.177 2.333l5.095.01v2.24a1.465 1.465 0 002.93 0v-2.234H28.334a1.465 1.465 0 00.003-2.93zm-5.252-.01l2.2-2.989v2.993l-2.2-.004z"/><path d="M17.597 29.877h-4.338c.688-.8 1.496-1.583 2.25-2.314 1.906-1.849 3.553-3.445 3.553-5.301a5.062 5.062 0 00-5.058-5.055 5.043 5.043 0 00-4.655 3.088 1.465 1.465 0 002.699 1.139 2.118 2.118 0 011.957-1.297c1.172 0 2.127.953 2.127 2.125 0 .032-.018.332-.615 1.072-.516.64-1.26 1.362-2.048 2.126-1.589 1.542-3.39 3.288-4.28 5.286a1.463 1.463 0 001.338 2.06h7.07a1.465 1.465 0 000-2.929zM36.635 22.27c-.49 0-.961.09-1.4.257v-3.904a1.465 1.465 0 10-2.93 0v12.754a1.465 1.465 0 102.93 0v-4.101c.018-.093.028-.189.028-.287 0-.97.628-1.79 1.372-1.79.744 0 1.373.82 1.373 1.79v4.388a1.465 1.465 0 102.93 0V26.99c0-2.602-1.93-4.72-4.303-4.72z"/></g><defs><clipPath id="aaclip0"><path d="M0 0h50v50H0z"/></clipPath></defs></svg><svg viewBox="0 0 8 4" id="arrow-down" xmlns="http://www.w3.org/2000/svg"><path d="M3.992.106l3.252 3.267a.37.37 0 010 .52.363.363 0 01-.516 0L3.734.884.739 3.892a.364.364 0 01-.516 0 .37.37 0 010-.52L3.475.107a.367.367 0 01.517 0z"/></svg><svg viewBox="0 0 20 32" id="arrow-left" xmlns="http://www.w3.org/2000/svg"><path d="M1.038 17.015l16.014 14.593a1.35 1.35 0 001.903 0 1.335 1.335 0 000-1.894L3.907 16 18.953 2.286a1.335 1.335 0 000-1.894 1.35 1.35 0 00-1.903 0L1.037 14.985c-.28.279-.4.648-.382 1.014a1.33 1.33 0 00.383 1.016z"/></svg><svg viewBox="0 0 6 10" id="arrow-r" xmlns="http://www.w3.org/2000/svg"><path d="M5.722 4.683L.718.123a.422.422 0 00-.595 0 .417.417 0 000 .591L4.826 5 .124 9.286a.417.417 0 000 .591c.164.164.43.164.594 0l5.004-4.56A.412.412 0 005.842 5a.416.416 0 00-.12-.317z"/></svg><svg viewBox="0 0 20 32" id="arrow-right" xmlns="http://www.w3.org/2000/svg"><path d="M18.964 14.985L2.951.392a1.35 1.35 0 00-1.903 0 1.335 1.335 0 000 1.894L16.095 16 1.05 29.714a1.335 1.335 0 000 1.894 1.35 1.35 0 001.903 0l16.013-14.593c.28-.279.4-.648.382-1.014a1.33 1.33 0 00-.383-1.016z"/></svg><svg viewBox="0 0 18 11" id="arrow-up" xmlns="http://www.w3.org/2000/svg"><path d="M8.43.7L.22 9.708a.76.76 0 000 1.07.75.75 0 001.066 0L9 2.314l7.714 8.464a.75.75 0 001.066 0 .76.76 0 000-1.07L9.57.7A.742.742 0 009 .485.748.748 0 008.43.7z"/></svg><svg viewBox="0 0 16 16" id="basket" xmlns="http://www.w3.org/2000/svg"><path d="M15.899 2.02a.462.462 0 00-.36-.174H3.255L2.91.358A.462.462 0 002.461 0h-2a.462.462 0 000 .923h1.633l2.332 10.104c.048.21.235.358.45.358h9.247a.461.461 0 100-.923h-8.88l-.355-1.539h9.266c.216 0 .403-.15.45-.36l1.385-6.154a.462.462 0 00-.09-.39zM13.785 8h-9.11L3.468 2.77h11.494L13.785 8zM6.77 12c-.934 0-1.693.76-1.693 1.692 0 .933.76 1.693 1.692 1.693.933 0 1.693-.76 1.693-1.693S7.702 12 6.769 12zm0 2.461a.77.77 0 11.001-1.54.77.77 0 01-.002 1.54zM12.308 12c-.934 0-1.693.76-1.693 1.692 0 .933.76 1.693 1.693 1.693S14 14.625 14 13.692 13.24 12 12.308 12zm0 2.461a.77.77 0 11.001-1.54.77.77 0 01-.001 1.54z"/></svg><svg viewBox="0 0 47 47" id="btn-grid" xmlns="http://www.w3.org/2000/svg"><rect width="47" height="47" rx="3"/><path d="M12.044 32.444H7.511c-.834 0-1.511.677-1.511 1.512v4.533C6 39.324 6.677 40 7.511 40h4.533c.835 0 1.512-.676 1.512-1.511v-4.533c0-.835-.677-1.512-1.512-1.512zM26.211 32.444h-4.533c-.835 0-1.511.677-1.511 1.512v4.533c0 .835.676 1.511 1.51 1.511h4.534c.835 0 1.511-.676 1.511-1.511v-4.533c0-.835-.676-1.512-1.51-1.512zM40.378 32.444h-4.534c-.834 0-1.51.677-1.51 1.512v4.533c0 .835.676 1.511 1.51 1.511h4.534c.834 0 1.51-.676 1.51-1.511v-4.533c0-.835-.676-1.512-1.51-1.512zM12.044 19.222H7.511C6.677 19.222 6 19.9 6 20.733v4.534c0 .834.677 1.51 1.511 1.51h4.533c.835 0 1.512-.676 1.512-1.51v-4.534c0-.834-.677-1.51-1.512-1.51zM26.211 19.222h-4.533c-.835 0-1.511.677-1.511 1.511v4.534c0 .834.676 1.51 1.51 1.51h4.534c.835 0 1.511-.676 1.511-1.51v-4.534c0-.834-.676-1.51-1.51-1.51zM40.378 19.222h-4.534c-.834 0-1.51.677-1.51 1.511v4.534c0 .834.676 1.51 1.51 1.51h4.534c.834 0 1.51-.676 1.51-1.51v-4.534c0-.834-.676-1.51-1.51-1.51zM12.044 6H7.511C6.677 6 6 6.677 6 7.511v4.533c0 .835.677 1.512 1.511 1.512h4.533c.835 0 1.512-.677 1.512-1.512V7.511c0-.834-.677-1.511-1.512-1.511zM26.211 6h-4.533c-.835 0-1.511.677-1.511 1.511v4.533c0 .835.676 1.512 1.51 1.512h4.534c.835 0 1.511-.677 1.511-1.512V7.511c0-.834-.676-1.511-1.51-1.511zM40.378 6h-4.534c-.834 0-1.51.677-1.51 1.511v4.533c0 .835.676 1.512 1.51 1.512h4.534c.834 0 1.51-.677 1.51-1.512V7.511c0-.834-.676-1.511-1.51-1.511z"/></svg><svg viewBox="0 0 47 47" id="btn-list-6" xmlns="http://www.w3.org/2000/svg"><rect width="47" height="47" rx="3"/><path d="M38.4 34h-7.8c-1.436 0-2.6.627-2.6 1.4v4.2c0 .773 1.164 1.4 2.6 1.4h7.8c1.436 0 2.6-.627 2.6-1.4v-4.2c0-.773-1.164-1.4-2.6-1.4zM16.4 34H8.6c-1.436 0-2.6.627-2.6 1.4v4.2c0 .773 1.164 1.4 2.6 1.4h7.8c1.436 0 2.6-.627 2.6-1.4v-4.2c0-.773-1.164-1.4-2.6-1.4zM38.4 20h-7.8c-1.436 0-2.6.627-2.6 1.4v4.2c0 .773 1.164 1.4 2.6 1.4h7.8c1.436 0 2.6-.627 2.6-1.4v-4.2c0-.773-1.164-1.4-2.6-1.4zM16.4 20H8.6c-1.436 0-2.6.627-2.6 1.4v4.2c0 .773 1.164 1.4 2.6 1.4h7.8c1.436 0 2.6-.627 2.6-1.4v-4.2c0-.773-1.164-1.4-2.6-1.4zM38.4 6h-7.8c-1.436 0-2.6.627-2.6 1.4v4.2c0 .773 1.164 1.4 2.6 1.4h7.8c1.436 0 2.6-.627 2.6-1.4V7.4c0-.773-1.164-1.4-2.6-1.4zM16.4 6H8.6C7.164 6 6 6.627 6 7.4v4.2c0 .773 1.164 1.4 2.6 1.4h7.8c1.436 0 2.6-.627 2.6-1.4V7.4c0-.773-1.164-1.4-2.6-1.4z"/></svg><svg viewBox="0 0 32 31" id="cart" xmlns="http://www.w3.org/2000/svg"><path d="M31.798 4.039a.923.923 0 00-.721-.347H6.509L5.822.715A.923.923 0 004.923 0h-4a.923.923 0 000 1.846H4.19l4.663 20.208c.097.419.47.715.9.715h18.494a.923.923 0 100-1.846h-17.76l-.71-3.077h18.532c.431 0 .806-.3.9-.72l2.77-12.308a.923.923 0 00-.18-.78zM27.569 16H9.35L6.937 5.538h22.987L27.57 16zM13.538 24a3.388 3.388 0 00-3.384 3.385 3.388 3.388 0 003.384 3.384 3.388 3.388 0 003.385-3.384A3.388 3.388 0 0013.538 24zm0 4.923A1.54 1.54 0 0112 27.385c0-.849.69-1.539 1.538-1.539.849 0 1.539.69 1.539 1.539a1.54 1.54 0 01-1.539 1.538zM24.615 24a3.388 3.388 0 00-3.384 3.385 3.388 3.388 0 003.384 3.384A3.388 3.388 0 0028 27.385 3.388 3.388 0 0024.615 24zm0 4.923a1.54 1.54 0 01-1.538-1.538c0-.849.69-1.539 1.538-1.539.849 0 1.539.69 1.539 1.539a1.54 1.54 0 01-1.539 1.538z"/></svg><svg viewBox="0 0 32 34" id="catalog-btn" xmlns="http://www.w3.org/2000/svg"><path d="M13.78 27.125H1.14C.51 27.125 0 27.63 0 28.25s.51 1.125 1.139 1.125H13.78c.528 2.567 2.825 4.5 5.58 4.5 2.754 0 5.05-1.933 5.578-4.5h5.809c.628 0 1.139-.504 1.139-1.125 0-.62-.51-1.125-1.14-1.125h-5.808c-.527-2.567-2.824-4.5-5.579-4.5-2.754 0-5.051 1.933-5.579 4.5zm8.996 1.125c0 1.864-1.53 3.375-3.417 3.375-1.887 0-3.416-1.51-3.416-3.375 0-1.864 1.53-3.375 3.416-3.375 1.887 0 3.416 1.51 3.416 3.375zM2.393 15.875H1.139C.51 15.875 0 16.379 0 17s.51 1.125 1.139 1.125h1.254c.527 2.567 2.824 4.5 5.578 4.5 2.755 0 5.052-1.933 5.58-4.5h17.196c.628 0 1.139-.504 1.139-1.125s-.51-1.125-1.14-1.125H13.55c-.527-2.567-2.824-4.5-5.579-4.5-2.754 0-5.051 1.933-5.578 4.5zM11.388 17c0 1.864-1.53 3.375-3.417 3.375-1.887 0-3.416-1.51-3.416-3.375 0-1.864 1.53-3.375 3.416-3.375 1.887 0 3.417 1.51 3.417 3.375zm6.947-12.375H1.14C.51 4.625 0 5.129 0 5.75s.51 1.125 1.139 1.125h17.197c.527 2.567 2.824 4.5 5.578 4.5 2.755 0 5.052-1.933 5.58-4.5h1.253c.628 0 1.139-.504 1.139-1.125 0-.62-.51-1.125-1.14-1.125h-1.253c-.527-2.567-2.824-4.5-5.579-4.5-2.754 0-5.051 1.933-5.579 4.5zm8.996 1.125c0 1.864-1.53 3.375-3.417 3.375-1.887 0-3.416-1.51-3.416-3.375 0-1.864 1.53-3.375 3.416-3.375 1.887 0 3.417 1.51 3.417 3.375z"/></svg><svg viewBox="0 0 12 9" id="check-mark" xmlns="http://www.w3.org/2000/svg"><path d="M4.196 8.393a.587.587 0 01-.416-.173L.173 4.613a.588.588 0 11.832-.833l3.191 3.19L10.995.174a.588.588 0 11.832.833L4.613 8.22a.588.588 0 01-.417.173z"/></svg><svg viewBox="0 0 12 12" id="delete" xmlns="http://www.w3.org/2000/svg"><path d="M6.703 6.003L11.847.86a.5.5 0 10-.706-.707L5.997 5.297.853.153A.5.5 0 00.146.86L5.29 6.003.146 11.147a.5.5 0 00.707.707L5.997 6.71l5.144 5.144a.5.5 0 00.706-.707L6.703 6.003z"/></svg><svg viewBox="0 0 32 23" id="delivery" xmlns="http://www.w3.org/2000/svg"><path d="M31.917 14.34l-1.62-2.479a3.866 3.866 0 00-3.25-1.75h-4.19v-2.41a2.671 2.671 0 00-2.669-2.668h-7.841A4.986 4.986 0 007.459.99 4.984 4.984 0 002.48 5.97c0 1.726.884 3.249 2.222 4.142H.508a.508.508 0 100 1.016h5.08v1.016H3.554a.508.508 0 000 1.016h2.032v1.015H.508a.508.508 0 100 1.016h5.08v2.25a2.548 2.548 0 00-1.525 2.328v.502c0 .28.228.508.509.508h4.505a2.811 2.811 0 002.732 2.173c1.33 0 2.445-.93 2.733-2.173h9.773a2.812 2.812 0 002.733 2.173c1.329 0 2.444-.93 2.733-2.173h1.711c.28 0 .508-.227.508-.508v-5.654a.508.508 0 00-.083-.278zM3.497 5.97a3.968 3.968 0 013.962-3.963 3.967 3.967 0 013.963 3.963 3.967 3.967 0 01-3.963 3.963A3.968 3.968 0 013.496 5.97zm3.106 9.221H7.62a.508.508 0 100-1.016H6.603V13.16h3.556a.508.508 0 100-1.016H6.603v-1.016h6.603a.508.508 0 100-1.016h-2.99a4.976 4.976 0 002.218-4.064h7.755c.91 0 1.652.742 1.652 1.653v9.522H6.603v-2.031zm15.238 4.572H14.59a2.797 2.797 0 00-.722-1.524h7.974v1.524zM6.61 18.239h3.142c-.382.413-.642.94-.721 1.524H5.079a1.532 1.532 0 011.53-1.524zm5.2 3.697a1.794 1.794 0 01-1.793-1.792c0-.988.805-1.792 1.792-1.792.989 0 1.793.804 1.793 1.792s-.804 1.792-1.793 1.792zm15.238 0a1.794 1.794 0 01-1.792-1.792c0-.988.804-1.792 1.792-1.792s1.792.804 1.792 1.792-.804 1.792-1.792 1.792zm3.936-2.173h-1.157a2.81 2.81 0 00-2.78-2.427 2.81 2.81 0 00-2.779 2.427h-1.41v-8.635h4.188c.976 0 1.874.482 2.401 1.288l1.537 2.352v4.995z"/><path d="M27.878 20.144a.83.83 0 11-1.661 0 .83.83 0 011.662 0zM12.64 20.144a.83.83 0 11-1.661 0 .83.83 0 011.661 0zM8.127 5.97V3.748a.508.508 0 10-1.016 0v2.056L6.074 7.226a.507.507 0 10.821.598L8.03 6.27a.508.508 0 00.097-.3zM26.876 11.636h-.971a.508.508 0 00-.508.508v3.555c0 .281.227.508.508.508h3.418a.874.874 0 00.764-.44.872.872 0 00.003-.88l-1.187-2.075a2.34 2.34 0 00-2.027-1.176zm-.463 3.556v-2.54h.463c.473 0 .911.254 1.145.664l1.072 1.875h-2.68z"/></svg><svg viewBox="0 0 50 50" id="delivery-action" xmlns="http://www.w3.org/2000/svg"><path d="M48.512 34.392a1.463 1.463 0 001.383-1.46c0-4.216-3.384-7.518-7.703-7.518h-1.428l-1.745-8.281a4.76 4.76 0 002.865-4.363 4.756 4.756 0 00-4.748-4.754h-6.75c-.808 0-1.463.656-1.463 1.465v1.824h-3.596a1.464 1.464 0 000 2.93h3.596v1.824c0 .809.655 1.465 1.463 1.465h.65a8.187 8.187 0 00-1.944 5.302v8.336a.077.077 0 01-.077.078h-5.91a.078.078 0 01-.075-.056l-1.593-5.39a3.017 3.017 0 002.233-2.91c0-3.307-2.687-5.997-5.989-5.997H4.499A4.506 4.506 0 000 21.391a4.509 4.509 0 003.871 4.46 11.307 11.307 0 00-3.779 8.441v4.561c0 .809.656 1.465 1.464 1.465H2.82c.682 3.402 3.689 5.974 7.284 5.974 3.596 0 6.603-2.572 7.284-5.974h17.898c.681 3.402 3.688 5.974 7.284 5.974 4.096 0 7.429-3.337 7.429-7.439a7.404 7.404 0 00-1.488-4.46zm-1.783-2.925h-3.294a7.425 7.425 0 00-2.395.107v-3.23h1.152c2.143 0 3.914 1.29 4.537 3.123zm-14.88-20.521h5.287a1.825 1.825 0 010 3.648h-5.287v-3.648zm-8.744 23.223h5.91a3.009 3.009 0 003.003-3.007v-8.336a5.297 5.297 0 014.123-5.16l1.974 9.366v5.873a7.452 7.452 0 00-2.828 4.483H20.74c-.683-5.256-5.023-9.188-10.44-9.188-2.416 0-4.585.79-6.295 2.146 1.413-2.646 4.2-4.45 7.4-4.45h7.01l1.809 6.12a3.02 3.02 0 002.88 2.153zM3.137 37.39c.256-1.56.922-2.965 1.94-4.054 1.329-1.422 3.184-2.205 5.223-2.205 3.774 0 6.823 2.652 7.477 6.258H3.137zM4.5 22.965a1.575 1.575 0 010-3.15H17.68a3.068 3.068 0 013.063 3.067c-.013.06-.11.1-.289.083H4.5zm5.606 20.396a4.51 4.51 0 01-4.258-3.044h8.516a4.51 4.51 0 01-4.258 3.044zm32.466 0a4.511 4.511 0 01-4.503-4.51 4.511 4.511 0 014.503-4.508 4.511 4.511 0 014.503 4.509 4.511 4.511 0 01-4.503 4.509z"/><path d="M42.57 40.328a1.474 1.474 0 100-2.948 1.474 1.474 0 000 2.947zM1.524 12.64h13.122a1.464 1.464 0 000-2.929H1.524a1.464 1.464 0 000 2.93zM6.385 6.638H19.62a1.464 1.464 0 000-2.93H6.385a1.464 1.464 0 000 2.93z"/></svg><svg viewBox="0 0 32 32" id="facebook" xmlns="http://www.w3.org/2000/svg"><g clip-path="url(#apclip0)"><path d="M21.33 5.313h2.92V.225C23.748.156 22.014 0 19.996 0c-4.212 0-7.098 2.65-7.098 7.519V12H8.25v5.688h4.648V32h5.699V17.69h4.46L23.764 12h-5.17V8.083c.002-1.644.445-2.77 2.735-2.77z"/></g><defs><clipPath id="apclip0"><path d="M0 0h32v32H0z"/></clipPath></defs></svg><svg viewBox="0 0 32 29" id="favorite" xmlns="http://www.w3.org/2000/svg"><path d="M29.665 2.777C28.087.987 25.897 0 23.5 0c-3.372 0-5.506 2.014-6.703 3.703-.311.438-.575.878-.797 1.292a12.245 12.245 0 00-.797-1.292C14.006 2.013 11.872 0 8.5 0 6.103 0 3.913.986 2.335 2.777.829 4.486 0 6.774 0 9.22c0 2.662 1.04 5.139 3.272 7.793 1.994 2.373 4.864 4.818 8.187 7.65a385.452 385.452 0 013.883 3.34l.04.035a.935.935 0 001.236 0l.04-.035c1.364-1.193 2.644-2.284 3.883-3.34 3.323-2.832 6.193-5.277 8.187-7.65C30.96 14.36 32 11.883 32 9.22c0-2.446-.83-4.734-2.335-6.443zm-10.34 20.46c-1.068.909-2.167 1.845-3.325 2.852-1.158-1.007-2.257-1.943-3.325-2.853-6.503-5.542-10.8-9.203-10.8-14.016 0-1.99.663-3.837 1.866-5.203A6.258 6.258 0 018.5 1.875c2.57 0 4.232 1.584 5.174 2.912a11.113 11.113 0 011.435 2.854.937.937 0 001.782 0c.15-.461.591-1.662 1.436-2.854.94-1.328 2.602-2.912 5.173-2.912 1.851 0 3.541.76 4.759 2.142 1.203 1.366 1.866 3.213 1.866 5.203 0 4.813-4.297 8.474-10.8 14.016z"/></svg><svg viewBox="0 0 24 33" id="geolocation" xmlns="http://www.w3.org/2000/svg"><path d="M12 0C5.383 0 0 5.383 0 12c0 2.178.977 4.521 1.018 4.62.315.749.938 1.912 1.387 2.594l8.228 12.467c.336.51.835.804 1.367.804s1.03-.293 1.367-.804l8.229-12.467a19.277 19.277 0 001.387-2.594C23.023 16.522 24 14.18 24 12c0-6.617-5.383-12-12-12zm9.681 16.072a17.727 17.727 0 01-1.264 2.365l-8.229 12.467c-.162.247-.213.247-.376 0L3.584 18.437A17.735 17.735 0 012.32 16.07c-.012-.028-.908-2.185-.908-4.071C1.412 6.162 6.162 1.412 12 1.412c5.838 0 10.588 4.75 10.588 10.588 0 1.889-.898 4.051-.907 4.072z"/><path d="M12 5.648A6.36 6.36 0 005.647 12 6.36 6.36 0 0012 18.354 6.36 6.36 0 0018.353 12 6.36 6.36 0 0012 5.648zm0 11.294A4.947 4.947 0 017.059 12a4.947 4.947 0 014.94-4.941A4.947 4.947 0 0116.942 12 4.947 4.947 0 0112 16.943z"/></svg><svg viewBox="0 0 32 29" id="heart" xmlns="http://www.w3.org/2000/svg"><path d="M29.665 2.777C28.087.987 25.897 0 23.5 0c-3.372 0-5.506 2.014-6.703 3.703-.311.438-.575.878-.797 1.292a12.245 12.245 0 00-.797-1.292C14.006 2.013 11.872 0 8.5 0 6.103 0 3.913.986 2.335 2.777.829 4.486 0 6.774 0 9.22c0 2.662 1.04 5.139 3.272 7.793 1.994 2.373 4.864 4.818 8.187 7.65a385.452 385.452 0 013.883 3.34l.04.035a.935.935 0 001.236 0l.04-.035c1.364-1.193 2.644-2.284 3.883-3.34 3.323-2.832 6.193-5.277 8.187-7.65C30.96 14.36 32 11.883 32 9.22c0-2.446-.83-4.734-2.335-6.443zm-10.34 20.46c-1.068.909-2.167 1.845-3.325 2.852-1.158-1.007-2.257-1.943-3.325-2.853-6.503-5.542-10.8-9.203-10.8-14.016 0-1.99.663-3.837 1.866-5.203A6.258 6.258 0 018.5 1.875c2.57 0 4.232 1.584 5.174 2.912a11.113 11.113 0 011.435 2.854.937.937 0 001.782 0c.15-.461.591-1.662 1.436-2.854.94-1.328 2.602-2.912 5.173-2.912 1.851 0 3.541.76 4.759 2.142 1.203 1.366 1.866 3.213 1.866 5.203 0 4.813-4.297 8.474-10.8 14.016z"/></svg><svg viewBox="0 0 24 24" id="icon-tel" xmlns="http://www.w3.org/2000/svg"><path d="M23.309 17.938l-3.469-3.47a2.472 2.472 0 00-1.756-.72c-.694 0-1.349.274-1.844.77l-1.35 1.35c-1.05-.584-2.444-1.386-3.892-2.834-1.446-1.447-2.248-2.837-2.834-3.892l1.351-1.35c1.005-1.007 1.026-2.623.046-3.601L6.093.722A2.461 2.461 0 004.336 0c-.678 0-1.32.261-1.812.736-.298.24-1.792 1.56-2.35 4.28-.78 3.81 1.013 7.474 6.186 12.65 5.78 5.777 10.713 6.226 12.088 6.226.286 0 .459-.017.505-.023 2.695-.316 3.66-1.512 4.364-2.386.913-1.133.91-2.624-.008-3.545zm-1.151 2.61c-.662.821-1.288 1.597-3.379 1.842 0 0-.115.013-.331.013-1.23 0-5.66-.418-11.035-5.79C2.643 11.84.968 8.567 1.633 5.316 2.12 2.942 3.41 1.933 3.46 1.895l.044-.033.04-.04c.215-.214.496-.333.792-.333.27 0 .52.101.703.286l3.47 3.469c.398.399.377 1.07-.048 1.495L6.933 8.266l-.025.027c-.399.438-.352 1.031-.132 1.417.633 1.143 1.5 2.708 3.169 4.377 1.663 1.663 3.226 2.53 4.365 3.162.114.064.35.171.644.171.348 0 .668-.147.905-.416l1.434-1.434c.214-.214.495-.332.79-.332a.99.99 0 01.705.284l3.467 3.468c.44.442.258 1.117-.097 1.558zM14.54 3.649c1.28.147 2.786.922 3.838 1.974 1.062 1.062 1.839 2.584 1.979 3.877a.745.745 0 101.48-.16c-.177-1.635-1.1-3.463-2.406-4.77-1.295-1.295-3.104-2.215-4.72-2.4a.745.745 0 10-.171 1.479zM13.844 6.768c.692.08 1.65.593 2.277 1.22.633.633 1.147 1.6 1.223 2.3a.745.745 0 101.48-.161c-.129-1.194-.922-2.463-1.65-3.192-.721-.721-1.978-1.51-3.16-1.646a.744.744 0 10-.17 1.48z"/></svg><svg viewBox="0 0 32 32" id="instagram" xmlns="http://www.w3.org/2000/svg"><g clip-path="url(#auclip0)"><path d="M16.005 7.784a8.21 8.21 0 00-8.21 8.21 8.21 8.21 0 008.21 8.211 8.21 8.21 0 008.211-8.21 8.21 8.21 0 00-8.21-8.211zm0 13.54a5.328 5.328 0 01-5.329-5.33 5.328 5.328 0 015.33-5.329 5.328 5.328 0 015.329 5.33 5.327 5.327 0 01-5.33 5.329z"/><path d="M22.597.101c-2.944-.137-10.236-.13-13.182 0C6.825.223 4.54.848 2.7 2.69-.377 5.767.016 9.913.016 15.995c0 6.224-.347 10.274 2.684 13.305 3.09 3.088 7.296 2.684 13.305 2.684 6.166 0 8.294.004 10.474-.84 2.964-1.15 5.201-3.8 5.42-8.559.138-2.945.13-10.236 0-13.182C31.635 3.785 28.62.379 22.597.1zm4.66 27.163C25.24 29.28 22.441 29.1 15.967 29.1c-6.667 0-9.34.099-11.291-1.857-2.247-2.236-1.84-5.827-1.84-11.27 0-7.367-.756-12.673 6.637-13.051 1.699-.06 2.199-.08 6.475-.08l.06.04c7.105 0 12.68-.744 13.015 6.648.076 1.686.093 2.193.093 6.462-.001 6.59.124 9.279-1.859 11.27z"/><path d="M24.541 9.379a1.919 1.919 0 100-3.838 1.919 1.919 0 000 3.838z"/></g><defs><clipPath id="auclip0"><path d="M0 0h32v32H0z"/></clipPath></defs></svg><svg viewBox="0 0 200 60" id="logo" xmlns="http://www.w3.org/2000/svg"><path d="M82.26 14.192c2.185.056 3.92.439 5.209 1.148 1.306.69 2.24 1.587 2.8 2.688.578 1.101.868 2.305.868 3.612 0 .84-.15 1.699-.448 2.576-.28.877-.765 1.69-1.456 2.436-.672.728-1.578 1.325-2.716 1.792-1.139.467-2.557.719-4.256.756v3.08h-3.808V29.2c-1.718-.037-3.155-.29-4.312-.756-1.139-.467-2.044-1.073-2.716-1.82-.672-.747-1.148-1.55-1.428-2.408a8.445 8.445 0 01-.42-2.576c0-1.307.28-2.51.84-3.612.579-1.101 1.512-1.997 2.8-2.688 1.306-.71 3.052-1.092 5.236-1.148v-2.464h3.808v2.464zm-3.807 3.304c-1.81.075-3.08.495-3.808 1.26-.728.747-1.092 1.699-1.092 2.856 0 1.25.392 2.268 1.176 3.052.784.765 2.025 1.185 3.724 1.26v-8.428zm3.808 8.428c1.717-.075 2.959-.495 3.724-1.26.784-.784 1.176-1.801 1.176-3.052 0-1.157-.364-2.11-1.092-2.856-.71-.765-1.979-1.185-3.808-1.26v8.428zm19.05-13.916c2.576 0 4.452.56 5.628 1.68 1.194 1.101 1.792 2.623 1.792 4.564 0 1.157-.243 2.25-.728 3.276-.486 1.008-1.298 1.82-2.436 2.436-1.12.616-2.651.924-4.592.924h-1.82V32h-4.228V12.008h6.384zm-.224 3.472h-1.932v5.936h1.4c1.194 0 2.137-.233 2.828-.7.709-.485 1.064-1.26 1.064-2.324 0-1.941-1.12-2.912-3.36-2.912zM124.017 32h-11.508V12.008h11.508v3.472h-7.28v4.396h6.776v3.472h-6.776V28.5h7.28V32zm29.304 0h-25.144V12.008h4.228v16.464h6.216V12.008h4.256v16.464h6.216V12.008h4.228V32zm23.187-10.024c0 2.072-.345 3.883-1.036 5.432-.672 1.53-1.708 2.725-3.108 3.584-1.4.859-3.192 1.288-5.376 1.288-2.165 0-3.957-.43-5.376-1.288-1.4-.859-2.445-2.063-3.136-3.612-.672-1.55-1.008-3.36-1.008-5.432 0-2.072.336-3.873 1.008-5.404.691-1.53 1.736-2.716 3.136-3.556 1.419-.859 3.22-1.288 5.404-1.288 2.166 0 3.948.43 5.348 1.288 1.4.84 2.436 2.035 3.108 3.584.691 1.53 1.036 3.332 1.036 5.404zm-14.588 0c0 2.09.402 3.743 1.204 4.956.803 1.195 2.091 1.792 3.864 1.792 1.811 0 3.108-.597 3.892-1.792.784-1.213 1.176-2.865 1.176-4.956 0-2.11-.392-3.761-1.176-4.956-.784-1.195-2.072-1.792-3.864-1.792-1.792 0-3.089.597-3.892 1.792-.802 1.195-1.204 2.847-1.204 4.956zM196.945 32h-4.816l-7.252-10.136V32h-4.228V12.008h4.228v9.688l7.168-9.688h4.508l-7.28 9.604L196.945 32zM87.116 45.704c0 .888-.148 1.664-.444 2.328a3.326 3.326 0 01-1.332 1.536c-.6.368-1.368.552-2.304.552-.928 0-1.696-.184-2.304-.552a3.386 3.386 0 01-1.344-1.548c-.288-.664-.432-1.44-.432-2.328 0-.888.144-1.66.432-2.316a3.327 3.327 0 011.344-1.524c.608-.368 1.38-.552 2.316-.552.928 0 1.692.184 2.292.552.6.36 1.044.872 1.332 1.536.296.656.444 1.428.444 2.316zm-6.252 0c0 .896.172 1.604.516 2.124.344.512.896.768 1.656.768.776 0 1.332-.256 1.668-.768.336-.52.504-1.228.504-2.124 0-.904-.168-1.612-.504-2.124-.336-.512-.888-.768-1.656-.768-.768 0-1.324.256-1.668.768-.344.512-.516 1.22-.516 2.124zM95.911 50H94.1v-3.696h-3.396V50h-1.812v-8.568h1.812v3.36H94.1v-3.36h1.812V50zm8.936 0h-1.812v-7.056h-2.1l-.156 1.2c-.048.432-.104.872-.168 1.32-.056.44-.116.86-.18 1.26-.064.392-.128.74-.192 1.044-.104.496-.244.92-.42 1.272-.168.352-.404.62-.708.804-.296.184-.684.276-1.164.276-.312 0-.6-.044-.864-.132V48.5c.104.032.204.06.3.084.104.024.216.036.336.036.232 0 .408-.12.528-.36.128-.248.256-.708.384-1.38.048-.256.116-.656.204-1.2.088-.544.184-1.18.288-1.908.112-.736.216-1.516.312-2.34h5.412V50zm7.405 0l-.624-2.04h-3.12l-.624 2.04h-1.956l3.024-8.604h2.22L114.208 50h-1.956zm-1.68-5.556c-.04-.136-.092-.308-.156-.516-.064-.208-.128-.42-.192-.636a13.834 13.834 0 01-.156-.564c-.04.16-.096.36-.168.6-.064.232-.128.456-.192.672-.056.208-.1.356-.132.444l-.612 1.992h2.232l-.624-1.992zm11.622-5.832a2.6 2.6 0 01-.348 1.104c-.192.312-.492.556-.9.732-.408.176-.956.264-1.644.264-.704 0-1.256-.084-1.656-.252-.392-.176-.672-.42-.84-.732-.168-.312-.268-.684-.3-1.116h1.596c.04.44.152.732.336.876.184.144.484.216.9.216.344 0 .624-.076.84-.228.224-.16.356-.448.396-.864h1.62zm-6.9 2.82h1.632v4.14c0 .2-.004.424-.012.672l-.024.732c-.008.232-.016.436-.024.612a5.388 5.388 0 01-.024.348h.036l3.96-6.504h2.172V50h-1.62v-4.116c0-.216.004-.452.012-.708l.024-.756c.016-.24.028-.448.036-.624.016-.184.028-.304.036-.36h-.048L117.478 50h-2.184v-8.568zM132.192 50h-1.812v-3.696h-3.396V50h-1.812v-8.568h1.812v3.36h3.396v-3.36h1.812V50zm1.664-2.574a1.735 1.735 0 01-.054-.336 4.712 4.712 0 01-.012-.306c0-.084.004-.186.012-.306s.026-.234.054-.342h3.186c.028.108.046.222.054.342.008.12.012.222.012.306 0 .084-.004.186-.012.306s-.026.232-.054.336h-3.186zM142.332 50l-2.064-6.72h-.048l.036.72c.016.32.032.664.048 1.032.016.36.024.688.024.984V50h-1.62v-8.568h2.472l2.028 6.552h.036l2.148-6.552h2.472V50h-1.692v-4.056c0-.272.004-.584.012-.936.016-.352.028-.684.036-.996l.036-.72h-.048L144 50h-1.668zm12.94 0l-.624-2.04h-3.12l-.624 2.04h-1.956l3.024-8.604h2.22L157.228 50h-1.956zm-1.68-5.556c-.04-.136-.092-.308-.156-.516-.064-.208-.128-.42-.192-.636a13.834 13.834 0 01-.156-.564c-.04.16-.096.36-.168.6-.064.232-.128.456-.192.672-.056.208-.1.356-.132.444l-.612 1.992h2.232l-.624-1.992zm7.457-3.012c1.104 0 1.908.24 2.412.72.512.472.768 1.124.768 1.956 0 .496-.104.964-.312 1.404-.208.432-.556.78-1.044 1.044-.48.264-1.136.396-1.968.396h-.78V50h-1.812v-8.568h2.736zm-.096 1.488h-.828v2.544h.6c.512 0 .916-.1 1.212-.3.304-.208.456-.54.456-.996 0-.832-.48-1.248-1.44-1.248zM172.832 50h-2.064l-3.108-4.344V50h-1.812v-8.568h1.812v4.152l3.072-4.152h1.932l-3.12 4.116L172.832 50zm6.011 0h-4.932v-8.568h4.932v1.488h-3.12v1.884h2.904v1.488h-2.904V48.5h3.12V50zm5.083 0h-1.812v-7.056h-2.328v-1.512h6.468v1.512h-2.328V50z"/><path opacity=".2" d="M54.648 59.067c0-.512-11.474-.933-25.611-.933-14.138 0-25.612.421-25.612.933S14.9 60 29.037 60c14.17 0 25.611-.421 25.611-.933z"/><path d="M29.398 11.81c11.146 0 20.187 8.277 20.187 18.481v18.482H29.398c-11.145 0-20.186-8.278-20.186-18.482V11.81h20.186z"/><path opacity=".3" d="M46.692 20.78c-1.677 1.776-2.696 4.093-2.696 6.622 0 3.762 2.236 7.043 5.556 8.819v-5.93c0-3.461-1.019-6.712-2.86-9.511z"/><path d="M38.769 13.947c-3.157 1.655-5.26 4.756-5.26 8.338 0 5.297 4.7 9.602 10.487 9.602 2.038 0 3.945-.542 5.556-1.475v-.12c0-7.104-4.372-13.275-10.783-16.345z"/><path opacity=".5" d="M22.922 15.39c-5.195 0-9.962 1.656-13.71 4.456V30.32c0 10.205 9.04 18.482 20.186 18.482h9.666c3.518-3.552 5.655-8.247 5.655-13.425 0-11.046-9.764-19.986-21.797-19.986z"/><path d="M49.552 48.743l-20.154.03c-11.145 0-20.186-8.278-20.186-18.482V11.84l40.34 36.903z"/><path opacity=".3" d="M12.335 18.432c0 14.026 12.428 25.374 27.716 25.374 1.315 0 2.597-.09 3.846-.24L12.598 14.94a24.621 24.621 0 00-.263 3.492z"/><path opacity=".3" d="M49.552 48.773L9.376 11.99c4.734 6.472 10.192 13.034 15.748 18.452 4.34 4.214 16.866 13.635 24.428 18.33z"/><path opacity=".3" d="M22.395 23.88L9.212 11.84V30.32c0 8.157 5.786 15.08 13.775 17.519-3.419-3.161-5.523-7.495-5.523-12.251 0-4.515 1.874-8.609 4.931-11.71z"/><path opacity=".3" d="M40.347 40.345c-3.42 3.822-8.614 6.29-14.434 6.29-3.88 0-7.496-1.083-10.488-2.95 3.617 3.161 8.516 5.118 13.94 5.118h20.187v-.03l-9.205-8.428z"/><path opacity=".3" d="M10.395 22.887c0-2.98.56-5.87 1.611-8.519L9.212 11.84V30.32c0 10.204 9.04 18.482 20.186 18.482h20.187v-.03l-2.005-1.836a29.736 29.736 0 01-9.337 1.474c-15.387-.03-27.848-11.438-27.848-25.524z"/><path d="M49.224 52.355c1.413-.362 2.893.421 3.254 1.715.395 1.295-.46 2.65-1.907 2.98-1.413.361-2.893-.421-3.254-1.715-.362-1.295.493-2.62 1.907-2.98zm-.526-1.836c-2.532.632-4.044 2.98-3.354 5.297.657 2.318 3.255 3.702 5.786 3.07 2.532-.632 4.044-3.01 3.354-5.297-.658-2.318-3.255-3.672-5.787-3.07z"/><path opacity=".5" d="M52.05 56.177a2.821 2.821 0 01-1.446.903c-1.414.361-2.893-.422-3.255-1.716a2.298 2.298 0 01.888-2.498c-.395-.512-.724-1.084-1.052-1.656-1.578 1.024-2.367 2.86-1.841 4.666.657 2.318 3.254 3.702 5.786 3.07 1.184-.3 2.137-.963 2.762-1.836a34.044 34.044 0 01-1.841-.933z"/><path d="M10.165 52.355c1.413-.331 2.893.451 3.255 1.745.361 1.295-.494 2.65-1.907 2.98-1.414.331-2.894-.451-3.255-1.745-.362-1.295.493-2.65 1.907-2.98zm-.526-1.836c-2.532.602-4.044 2.98-3.387 5.297.658 2.318 3.255 3.702 5.787 3.1 2.531-.602 4.044-2.98 3.419-5.297-.69-2.318-3.288-3.703-5.82-3.1z"/><path opacity=".5" d="M12.96 56.207a2.596 2.596 0 01-1.447.873c-1.414.331-2.893-.452-3.255-1.746-.263-.963.132-1.926.888-2.498-.395-.512-.723-1.084-1.02-1.656-1.577.994-2.4 2.83-1.873 4.636.657 2.317 3.254 3.702 5.786 3.1 1.184-.27 2.17-.963 2.762-1.836-.658-.24-1.25-.542-1.841-.873z"/><path d="M10.494 10.546c-.625 0-1.15-.482-1.15-1.054 0-2.468-.757-4.334-2.204-5.568-2.334-2.017-5.852-1.806-5.885-1.806-.624.06-1.183-.392-1.25-.964C-.06.582.434.071 1.059.011c.197 0 4.537-.301 7.628 2.317 1.972 1.656 2.959 4.064 2.959 7.134 0 .602-.494 1.084-1.151 1.084z"/></svg><svg viewBox="0 0 198 60" id="logo-mob" xmlns="http://www.w3.org/2000/svg"><path d="M82.26 14.192c2.185.056 3.92.439 5.209 1.148 1.307.69 2.24 1.587 2.8 2.688.579 1.101.868 2.305.868 3.612 0 .84-.15 1.699-.448 2.576-.28.877-.765 1.69-1.456 2.436-.672.728-1.577 1.325-2.716 1.792-1.139.467-2.557.719-4.256.756v3.08h-3.808V29.2c-1.717-.037-3.155-.29-4.312-.756-1.139-.467-2.044-1.073-2.716-1.82-.672-.747-1.148-1.55-1.428-2.408a8.445 8.445 0 01-.42-2.576c0-1.307.28-2.51.84-3.612.579-1.101 1.512-1.997 2.8-2.688 1.307-.71 3.052-1.092 5.236-1.148v-2.464h3.808v2.464zm-3.807 3.304c-1.81.075-3.08.495-3.808 1.26-.728.747-1.092 1.699-1.092 2.856 0 1.25.392 2.268 1.176 3.052.784.765 2.025 1.185 3.724 1.26v-8.428zm3.808 8.428c1.717-.075 2.959-.495 3.724-1.26.784-.784 1.176-1.801 1.176-3.052 0-1.157-.364-2.11-1.092-2.856-.71-.765-1.979-1.185-3.808-1.26v8.428zm19.05-13.916c2.576 0 4.452.56 5.628 1.68 1.194 1.101 1.792 2.623 1.792 4.564 0 1.157-.243 2.25-.728 3.276-.486 1.008-1.298 1.82-2.436 2.436-1.12.616-2.651.924-4.592.924h-1.82V32h-4.228V12.008h6.384zm-.224 3.472h-1.932v5.936h1.4c1.194 0 2.137-.233 2.828-.7.709-.485 1.064-1.26 1.064-2.324 0-1.941-1.12-2.912-3.36-2.912zM124.017 32h-11.508V12.008h11.508v3.472h-7.28v4.396h6.776v3.472h-6.776V28.5h7.28V32zm29.304 0h-25.144V12.008h4.228v16.464h6.216V12.008h4.256v16.464h6.216V12.008h4.228V32zm23.187-10.024c0 2.072-.345 3.883-1.036 5.432-.672 1.53-1.708 2.725-3.108 3.584-1.4.859-3.192 1.288-5.376 1.288-2.165 0-3.957-.43-5.376-1.288-1.4-.859-2.445-2.063-3.136-3.612-.672-1.55-1.008-3.36-1.008-5.432 0-2.072.336-3.873 1.008-5.404.691-1.53 1.736-2.716 3.136-3.556 1.419-.859 3.22-1.288 5.404-1.288 2.166 0 3.948.43 5.348 1.288 1.4.84 2.436 2.035 3.108 3.584.691 1.53 1.036 3.332 1.036 5.404zm-14.588 0c0 2.09.402 3.743 1.204 4.956.803 1.195 2.091 1.792 3.864 1.792 1.811 0 3.108-.597 3.892-1.792.784-1.213 1.176-2.865 1.176-4.956 0-2.11-.392-3.761-1.176-4.956-.784-1.195-2.072-1.792-3.864-1.792-1.792 0-3.089.597-3.892 1.792-.802 1.195-1.204 2.847-1.204 4.956zM196.945 32h-4.816l-7.252-10.136V32h-4.228V12.008h4.228v9.688l7.168-9.688h4.508l-7.28 9.604L196.945 32zM87.117 45.704c0 .888-.148 1.664-.445 2.328a3.326 3.326 0 01-1.331 1.536c-.6.368-1.368.552-2.304.552-.928 0-1.697-.184-2.305-.552a3.386 3.386 0 01-1.344-1.548c-.288-.664-.431-1.44-.431-2.328 0-.888.144-1.66.431-2.316a3.327 3.327 0 011.344-1.524c.609-.368 1.38-.552 2.317-.552.927 0 1.691.184 2.291.552.6.36 1.044.872 1.332 1.536.297.656.445 1.428.445 2.316zm-6.252 0c0 .896.172 1.604.516 2.124.344.512.895.768 1.656.768.775 0 1.331-.256 1.667-.768.337-.52.505-1.228.505-2.124 0-.904-.169-1.612-.505-2.124-.335-.512-.887-.768-1.655-.768-.769 0-1.325.256-1.669.768-.343.512-.515 1.22-.515 2.124zM95.91 50H94.1v-3.696h-3.396V50h-1.812v-8.568h1.812v3.36H94.1v-3.36h1.812V50zm8.936 0h-1.812v-7.056h-2.1l-.156 1.2c-.048.432-.104.872-.168 1.32-.056.44-.116.86-.18 1.26-.064.392-.128.74-.192 1.044-.104.496-.244.92-.42 1.272-.168.352-.404.62-.708.804-.296.184-.684.276-1.164.276-.312 0-.6-.044-.864-.132V48.5c.104.032.204.06.3.084.104.024.216.036.336.036.232 0 .408-.12.528-.36.128-.248.256-.708.384-1.38.048-.256.116-.656.204-1.2.088-.544.184-1.18.288-1.908.112-.736.216-1.516.312-2.34h5.412V50zm7.405 0l-.624-2.04h-3.12l-.624 2.04h-1.956l3.024-8.604h2.22L114.208 50h-1.956zm-1.68-5.556c-.04-.136-.092-.308-.156-.516-.064-.208-.128-.42-.192-.636a13.834 13.834 0 01-.156-.564c-.04.16-.096.36-.168.6-.064.232-.128.456-.192.672-.056.208-.1.356-.132.444l-.612 1.992h2.232l-.624-1.992zm11.622-5.832a2.6 2.6 0 01-.348 1.104c-.192.312-.492.556-.9.732-.408.176-.956.264-1.644.264-.704 0-1.256-.084-1.656-.252-.392-.176-.672-.42-.84-.732-.168-.312-.268-.684-.3-1.116h1.596c.04.44.152.732.336.876.184.144.484.216.9.216.344 0 .624-.076.84-.228.224-.16.356-.448.396-.864h1.62zm-6.9 2.82h1.632v4.14c0 .2-.004.424-.012.672l-.024.732c-.008.232-.016.436-.024.612a5.388 5.388 0 01-.024.348h.036l3.96-6.504h2.172V50h-1.62v-4.116c0-.216.004-.452.012-.708l.024-.756c.016-.24.028-.448.036-.624.016-.184.028-.304.036-.36h-.048L117.478 50h-2.184v-8.568zM132.193 50h-1.812v-3.696h-3.396V50h-1.812v-8.568h1.812v3.36h3.396v-3.36h1.812V50zm1.663-2.574a1.735 1.735 0 01-.054-.336 4.712 4.712 0 01-.012-.306c0-.084.004-.186.012-.306s.026-.234.054-.342h3.186c.028.108.046.222.054.342.008.12.012.222.012.306 0 .084-.004.186-.012.306s-.026.232-.054.336h-3.186zM142.332 50l-2.064-6.72h-.048l.036.72c.016.32.032.664.048 1.032.016.36.024.688.024.984V50h-1.62v-8.568h2.472l2.028 6.552h.036l2.148-6.552h2.472V50h-1.692v-4.056c0-.272.004-.584.012-.936.016-.352.028-.684.036-.996l.036-.72h-.048L144 50h-1.668zm12.94 0l-.624-2.04h-3.12l-.624 2.04h-1.956l3.024-8.604h2.22L157.228 50h-1.956zm-1.68-5.556c-.04-.136-.092-.308-.156-.516-.064-.208-.128-.42-.192-.636a13.834 13.834 0 01-.156-.564c-.04.16-.096.36-.168.6-.064.232-.128.456-.192.672-.056.208-.1.356-.132.444l-.612 1.992h2.232l-.624-1.992zm7.457-3.012c1.104 0 1.908.24 2.412.72.512.472.768 1.124.768 1.956 0 .496-.104.964-.312 1.404-.208.432-.556.78-1.044 1.044-.48.264-1.136.396-1.968.396h-.78V50h-1.812v-8.568h2.736zm-.096 1.488h-.828v2.544h.6c.512 0 .916-.1 1.212-.3.304-.208.456-.54.456-.996 0-.832-.48-1.248-1.44-1.248zM172.832 50h-2.064l-3.108-4.344V50h-1.812v-8.568h1.812v4.152l3.072-4.152h1.932l-3.12 4.116L172.832 50zm6.011 0h-4.932v-8.568h4.932v1.488h-3.12v1.884h2.904v1.488h-2.904V48.5h3.12V50zm5.083 0h-1.812v-7.056h-2.328v-1.512h6.468v1.512h-2.328V50z"/><path opacity=".2" d="M54.648 59.067c0-.512-11.474-.933-25.611-.933-14.138 0-25.612.421-25.612.933S14.899 60 29.037 60c14.17 0 25.611-.421 25.611-.933z"/><path d="M29.398 11.81c11.146 0 20.187 8.277 20.187 18.481v18.482H29.398c-11.145 0-20.186-8.278-20.186-18.482V11.81h20.186z"/><path opacity=".3" d="M46.692 20.78c-1.677 1.775-2.696 4.093-2.696 6.622 0 3.762 2.236 7.043 5.556 8.819v-5.93c0-3.461-1.019-6.712-2.86-9.511z"/><path d="M38.769 13.947c-3.157 1.655-5.26 4.756-5.26 8.338 0 5.297 4.7 9.602 10.487 9.602 2.038 0 3.945-.542 5.556-1.475v-.12c0-7.104-4.372-13.275-10.783-16.345z"/><path opacity=".5" d="M22.922 15.39c-5.195 0-9.962 1.656-13.71 4.456V30.32c0 10.205 9.041 18.482 20.187 18.482h9.666c3.517-3.552 5.654-8.247 5.654-13.425 0-11.046-9.764-19.986-21.797-19.986z"/><path d="M49.552 48.742l-20.154.03c-11.145 0-20.186-8.277-20.186-18.48V11.84l40.34 36.902z"/><path opacity=".3" d="M12.335 18.432c0 14.026 12.428 25.374 27.716 25.374 1.315 0 2.597-.09 3.846-.24L12.598 14.94a24.621 24.621 0 00-.263 3.492z"/><path opacity=".3" d="M49.552 48.773L9.376 11.99c4.734 6.472 10.192 13.034 15.748 18.452 4.34 4.214 16.866 13.635 24.428 18.33z"/><path opacity=".3" d="M22.396 23.88L9.212 11.84V30.32c0 8.157 5.786 15.08 13.775 17.518-3.419-3.16-5.523-7.494-5.523-12.25 0-4.515 1.874-8.609 4.932-11.71z"/><path opacity=".3" d="M40.347 40.345c-3.42 3.822-8.614 6.29-14.434 6.29-3.88 0-7.496-1.083-10.488-2.95 3.617 3.161 8.516 5.118 13.94 5.118h20.187v-.03l-9.205-8.428z"/><path opacity=".3" d="M10.395 22.887c0-2.98.56-5.87 1.611-8.519L9.212 11.84V30.32c0 10.204 9.041 18.482 20.187 18.482h20.186v-.03l-2.005-1.837a29.736 29.736 0 01-9.337 1.475c-15.387-.03-27.848-11.438-27.848-25.524z"/><path d="M49.224 52.355c1.413-.362 2.893.421 3.254 1.715.395 1.295-.46 2.65-1.907 2.98-1.413.361-2.893-.421-3.254-1.715-.362-1.295.493-2.62 1.907-2.98zm-.527-1.836c-2.531.632-4.044 2.98-3.353 5.297.657 2.318 3.255 3.702 5.786 3.07 2.532-.632 4.044-3.01 3.354-5.297-.658-2.318-3.255-3.672-5.787-3.07z"/><path opacity=".5" d="M52.05 56.177a2.821 2.821 0 01-1.446.903c-1.414.361-2.893-.422-3.255-1.716a2.298 2.298 0 01.888-2.498c-.395-.512-.724-1.084-1.052-1.656-1.579 1.024-2.368 2.86-1.842 4.666.658 2.318 3.255 3.702 5.787 3.07 1.183-.301 2.137-.963 2.762-1.836a34.044 34.044 0 01-1.842-.933z"/><path d="M10.165 52.355c1.414-.331 2.893.451 3.255 1.745.361 1.295-.493 2.65-1.907 2.98-1.414.331-2.893-.451-3.255-1.745-.362-1.295.493-2.65 1.907-2.98zm-.526-1.836c-2.532.602-4.044 2.98-3.387 5.297.658 2.318 3.255 3.702 5.787 3.1 2.531-.602 4.044-2.98 3.419-5.297-.69-2.318-3.288-3.703-5.82-3.1z"/><path opacity=".5" d="M12.96 56.207a2.596 2.596 0 01-1.447.873c-1.414.331-2.893-.452-3.255-1.746-.263-.963.132-1.926.888-2.498-.395-.512-.723-1.084-1.02-1.656-1.577.994-2.4 2.83-1.873 4.636.657 2.317 3.255 3.702 5.786 3.1 1.184-.27 2.17-.963 2.762-1.836a12.63 12.63 0 01-1.841-.873z"/><path d="M10.494 10.546c-.625 0-1.15-.482-1.15-1.054 0-2.468-.757-4.334-2.204-5.568-2.334-2.017-5.852-1.806-5.885-1.806-.624.06-1.183-.392-1.25-.964C-.06.582.434.071 1.059.011c.197 0 4.537-.301 7.628 2.317 1.972 1.656 2.959 4.064 2.959 7.134 0 .602-.494 1.084-1.151 1.084z"/></svg><svg viewBox="0 0 37 40" id="logo-short" xmlns="http://www.w3.org/2000/svg"><path opacity=".2" d="M36.432 39.378c0-.341-7.65-.622-17.074-.622-9.425 0-17.075.28-17.075.622 0 .341 7.65.622 17.075.622 9.447 0 17.074-.28 17.074-.622z"/><path d="M19.599 7.873c7.43 0 13.458 5.519 13.458 12.321v12.321H19.599c-7.43 0-13.458-5.518-13.458-12.32V7.872H19.6z"/><path opacity=".3" d="M31.128 13.853c-1.118 1.184-1.797 2.73-1.797 4.415 0 2.508 1.49 4.695 3.704 5.88v-3.954c0-2.307-.68-4.475-1.907-6.34z"/><path d="M25.846 9.298c-2.105 1.104-3.507 3.17-3.507 5.558 0 3.532 3.134 6.402 6.992 6.402 1.359 0 2.63-.361 3.704-.983v-.08c0-4.737-2.915-8.85-7.19-10.897z"/><path opacity=".5" d="M15.281 10.26c-3.463 0-6.641 1.104-9.14 2.97v6.984c0 6.802 6.028 12.32 13.458 12.32h6.444c2.345-2.367 3.77-5.498 3.77-8.95 0-7.364-6.51-13.323-14.532-13.323z"/><path d="M33.035 32.495l-13.436.02c-7.43 0-13.458-5.518-13.458-12.32V7.892l26.894 24.602z"/><path opacity=".3" d="M8.223 12.288c0 9.351 8.285 16.916 18.477 16.916.877 0 1.732-.06 2.565-.16L8.399 9.96c-.11.763-.176 1.545-.176 2.328z"/><path opacity=".3" d="M33.035 32.515L6.25 7.994c3.156 4.314 6.794 8.689 10.498 12.3 2.894 2.81 11.245 9.09 16.286 12.221z"/><path opacity=".3" d="M14.93 15.92L6.141 7.893v12.321c0 5.438 3.858 10.054 9.184 11.68-2.28-2.108-3.682-4.997-3.682-8.168 0-3.01 1.249-5.74 3.287-7.806z"/><path opacity=".3" d="M26.898 26.897c-2.28 2.548-5.743 4.194-9.622 4.194-2.587 0-4.998-.723-6.992-1.967 2.41 2.107 5.677 3.411 9.293 3.411h13.458v-.02l-6.137-5.618z"/><path opacity=".3" d="M6.93 15.258c0-1.987.373-3.913 1.074-5.68L6.141 7.894v12.321c0 6.803 6.028 12.321 13.458 12.321h13.458v-.02l-1.337-1.224c-1.95.642-4.033.983-6.225.983C15.237 32.254 6.93 24.65 6.93 15.258z"/><path d="M32.816 34.903c.942-.24 1.928.281 2.17 1.144.262.863-.307 1.766-1.272 1.986-.942.241-1.929-.28-2.17-1.143-.24-.863.329-1.746 1.271-1.987zm-.351-1.224c-1.688.421-2.696 1.987-2.236 3.532.439 1.545 2.17 2.468 3.858 2.047 1.688-.422 2.696-2.007 2.235-3.532-.438-1.545-2.17-2.448-3.857-2.047z"/><path opacity=".5" d="M34.7 37.451a1.88 1.88 0 01-.964.602c-.943.241-1.93-.28-2.17-1.144a1.532 1.532 0 01.592-1.665c-.263-.341-.483-.722-.702-1.104-1.052.682-1.578 1.907-1.227 3.11.438 1.546 2.17 2.469 3.857 2.047.79-.2 1.425-.642 1.842-1.224-.417-.2-.833-.401-1.228-.622z"/><path d="M6.776 34.903c.943-.22 1.93.301 2.17 1.164.241.863-.329 1.766-1.271 1.986-.943.221-1.929-.3-2.17-1.163-.241-.863.329-1.766 1.271-1.987zm-.35-1.224c-1.688.401-2.696 1.987-2.258 3.532.438 1.545 2.17 2.468 3.858 2.067 1.687-.402 2.696-1.987 2.28-3.532-.461-1.545-2.193-2.468-3.88-2.067z"/><path opacity=".5" d="M8.64 37.471a1.73 1.73 0 01-.965.582c-.942.221-1.929-.3-2.17-1.164-.175-.642.088-1.284.592-1.665a7.283 7.283 0 01-.68-1.104c-1.051.662-1.6 1.886-1.249 3.09.439 1.546 2.17 2.469 3.858 2.067.789-.18 1.447-.642 1.841-1.224a8.418 8.418 0 01-1.227-.582z"/><path d="M6.996 7.03c-.417 0-.767-.32-.767-.702 0-1.645-.504-2.89-1.469-3.712C3.204 1.27.86 1.412.837 1.412.42 1.452.047 1.15.004.77-.04.388.289.047.705.007c.132 0 3.025-.2 5.085 1.545 1.315 1.104 1.973 2.71 1.973 4.756 0 .401-.329.722-.767.722z"/></svg><svg viewBox="0 0 49 29" id="mc" xmlns="http://www.w3.org/2000/svg"><g clip-path="url(#ayclip0)"><path d="M33.933 0a14.433 14.433 0 00-9.721 3.748A14.442 14.442 0 0014.495.003h-.093C6.444.055 0 6.529 0 14.498c0 8.001 6.494 14.494 14.494 14.494 3.737 0 7.145-1.417 9.716-3.745a14.336 14.336 0 01-1.482-1.584h2.993a14.492 14.492 0 01-1.472 1.553h-.002c-.012.013-.025.021-.037.032a14.44 14.44 0 009.728 3.749c8.005-.003 14.492-6.495 14.49-14.499v-.007C48.429 6.487 41.938-.002 33.933 0zM22.894 5.245h2.755c.406.492.783 1.01 1.125 1.552h-4.915a21.68 21.68 0 011.035-1.552zm-1.891 3.074h6.607c.235.502.443 1.021.625 1.553H20.22c.08-.15.36-.754.783-1.553zM5.917 18.19l.879-5.542-1.983 5.542H3.75l-.138-5.542-.939 5.542H1.184l1.234-7.35H4.67l.079 4.51 1.521-4.51h2.443l-1.217 7.35H5.917zm5.265-.012l.051-.587c-.024.003-.494.709-1.583.709-.57 0-1.49-.311-1.49-1.663 0-1.719 1.402-2.289 2.737-2.289.21 0 .663.038.663.038s.051-.105.051-.389c0-.467-.42-.531-.995-.531-1.013 0-1.682.271-1.682.271l.224-1.33s.812-.34 1.869-.34c.547 0 2.12.058 2.12 1.861l-.606 4.25h-1.359zm5.743-1.872c0 2.051-1.987 1.963-2.334 1.963-1.295 0-1.695-.179-1.732-.189l.206-1.35c.002-.012.65.235 1.371.235.416 0 .956-.041.956-.538 0-.744-1.932-.566-1.932-2.333 0-1.559 1.158-2.015 2.3-2.015.882 0 1.424.121 1.424.121l-.195 1.362s-.837-.069-1.054-.069c-.549 0-.848.12-.848.504-.001.772 1.838.394 1.838 2.309zm2.386.538c.137 0 .292-.047.398-.047l-.193 1.311c-.155.043-.594.199-1.157.203-.719.006-1.23-.396-1.23-1.308 0-.612.877-5.655.911-5.688h1.543l-.157.902h.77l-.197 1.453h-.817l-.434 2.677c-.033.213.026.497.563.497zm3.394-4.797c1.694 0 2.201 1.24 2.201 2.257 0 .407-.204 1.407-.204 1.407h-3.136s-.29 1.235 1.367 1.235c.777 0 1.639-.38 1.639-.38l-.272 1.487s-.498.254-1.63.254c-1.227 0-2.666-.519-2.666-2.699.001-1.889 1.149-3.561 2.701-3.561zm4.087 10.123H21.65c-.313-.5-.605-1.013-.856-1.552h6.843a14.886 14.886 0 01-.845 1.552zm-.345-3.969h-1.584l.963-5.982h1.437l-.138.867s.512-.943 1.203-.943c.201 0 .298.02.298.02-.205.418-.386.801-.574 1.79-1.072-.38-1.154 1.693-1.605 4.248zm6.035-.093s-.83.212-1.35.212c-1.842 0-2.777-1.271-2.777-3.196 0-2.903 1.733-4.449 3.514-4.449.805 0 1.738.378 1.738.378l-.252 1.635s-.631-.441-1.416-.441c-1.05 0-1.992 1.002-1.992 2.823 0 .897.439 1.733 1.535 1.733.521 0 1.276-.379 1.276-.379l-.276 1.684zm3.715.073l.052-.591c-.025.003-.495.709-1.583.709-.57 0-1.49-.311-1.49-1.663 0-1.719 1.402-2.289 2.736-2.289.21 0 .664.038.664.038s.052-.104.052-.388c0-.467-.42-.531-.996-.531-1.013 0-1.681.271-1.681.271l.224-1.33s.812-.34 1.87-.34c.546 0 2.12.058 2.119 1.861l-.606 4.25c-.001.003-1.361.003-1.361.003zm3.207.02H37.82l.963-5.982h1.438l-.138.867s.513-.943 1.204-.943c.201 0 .297.02.297.02-.204.418-.387.801-.574 1.79-1.073-.38-1.155 1.693-1.606 4.248zm4.729-.016l.067-.551s-.512.646-1.438.646c-1.283 0-1.912-1.239-1.912-2.505 0-1.958 1.178-3.665 2.592-3.665.91.002 1.491.805 1.491.805l.334-2.065 1.547-.003-1.18 7.338h-1.501zm3.052-.207a.461.461 0 01-.406.237.471.471 0 01-.404-.237.464.464 0 010-.466.475.475 0 01.404-.236c.08 0 .156.021.23.062a.461.461 0 01.176.64zM47.061 22.4c-.01-.006-.019-.017-.035-.023a.245.245 0 00-.08-.01h-.094v.15h.1c.047 0 .078-.003.096-.02a.066.066 0 00.025-.055.075.075 0 00-.012-.041z"/><path d="M11.022 15.495c-1.13 0-1.36.508-1.36.93 0 .219.125.583.604.583.93 0 1.122-1.218 1.092-1.477-.044-.01-.072-.035-.336-.036zM22.711 13.428c-.841 0-1.003.957-1.003 1.058h1.713c0-.077.161-1.058-.71-1.058zM43.709 13.595c-.68 0-1.216.788-1.215 1.985 0 .73.26 1.198.816 1.198.836 0 1.239-1.091 1.239-1.904 0-.897-.285-1.279-.84-1.279zM47.115 17.552a.377.377 0 00-.146-.145.381.381 0 00-.528.145.403.403 0 00-.053.195c0 .067.018.133.05.194a.409.409 0 00.34.2c.067 0 .133-.02.193-.054a.388.388 0 00.144-.535zm-.217.452l-.045-.078a.404.404 0 00-.084-.118.102.102 0 00-.066-.019h-.046v.214h-.084v-.504h.175c.059 0 .103.005.128.016a.143.143 0 01.064.048.116.116 0 01.023.074.136.136 0 01-.04.096c-.026.029-.062.041-.104.046.02.008.033.017.043.026a.51.51 0 01.074.099l.062.1h-.1zM36.039 15.495c-1.131 0-1.36.508-1.36.93 0 .219.124.583.604.583.929 0 1.121-1.218 1.092-1.477-.045-.01-.073-.035-.336-.036z"/><path d="M46.864 17.602a.091.091 0 00-.034-.025.283.283 0 00-.082-.01h-.091v.153h.099c.047 0 .078-.006.097-.021a.078.078 0 00.024-.056.067.067 0 00-.013-.041z"/></g><defs><clipPath id="ayclip0"><path d="M0 0h49v29H0z"/></clipPath></defs></svg><svg viewBox="0 0 16 2" id="minus" xmlns="http://www.w3.org/2000/svg"><path d="M15.333.333H.667a.667.667 0 100 1.334h14.666a.667.667 0 100-1.334z"/></svg><svg viewBox="0 0 16 16" id="minus1" xmlns="http://www.w3.org/2000/svg"><g clip-path="url(#baclip0)"><path d="M15.333 7.333H.667a.667.667 0 100 1.334h14.666a.667.667 0 100-1.334z"/></g><defs><clipPath id="baclip0"><path d="M0 0h16v16H0z"/></clipPath></defs></svg><svg viewBox="0 0 26 17" id="nav-icon" xmlns="http://www.w3.org/2000/svg"><path d="M.917 0h24.896v1H.917zM.917 8h19.917v1H.917zM.917 16h24.896v1H.917z"/></svg><svg viewBox="0 0 26 20" id="nav-icon-dark" xmlns="http://www.w3.org/2000/svg"><path d="M.842 0h24.793v1.12H.842zM.842 8.96h19.834v1.12H.842zM.842 17.92h24.793v1.12H.842z"/></svg><svg viewBox="0 0 16 16" id="plus" xmlns="http://www.w3.org/2000/svg"><path d="M15.2 7.2H8.8V.8a.8.8 0 00-1.6 0v6.4H.8a.8.8 0 000 1.6h6.4v6.4a.8.8 0 001.6 0V8.8h6.4a.8.8 0 000-1.6z"/></svg><svg viewBox="0 0 16 16" id="plus1" xmlns="http://www.w3.org/2000/svg"><path d="M15.2 7.2H8.8V.8a.8.8 0 00-1.6 0v6.4H.8a.8.8 0 000 1.6h6.4v6.4a.8.8 0 001.6 0V8.8h6.4a.8.8 0 000-1.6z"/></svg><svg viewBox="0 0 50 50" id="return" xmlns="http://www.w3.org/2000/svg"><path d="M33.691 50H11.72C5.257 50 0 44.743 0 38.281V11.72C0 5.257 5.257 0 11.719 0H38.28C44.743 0 50 5.257 50 11.719v17.285c-.103 2.591-3.804 2.59-3.906 0V11.719c0-4.308-3.505-7.813-7.813-7.813H11.72c-4.308 0-7.813 3.505-7.813 7.813V38.28c0 4.308 3.505 7.813 7.813 7.813H33.69c2.592.103 2.59 3.804 0 3.906zm-1.757-39.258A1.953 1.953 0 0029.98 8.79h-9.96c-2.592.103-2.59 3.804 0 3.906h9.96a1.953 1.953 0 001.954-1.953zm-.586 32.13c-.499 0-.998-.19-1.379-.57l-3.25-3.24A5.802 5.802 0 0125 34.928c0-1.563.61-3.032 1.718-4.136l3.266-3.186a1.953 1.953 0 112.727 2.797l-3.241 3.161c-.749.723-.746 2.013.006 2.733l3.25 3.238c1.235 1.224.338 3.347-1.378 3.337zm16.18 4.618c5.313-5.334 1.478-14.597-6.073-14.58h-6.982c-2.592.103-2.59 3.804 0 3.906h6.982a4.644 4.644 0 014.639 4.64c0 2.557-2.06 4.638-4.59 4.638-2.59.102-2.591 3.803 0 3.906a8.415 8.415 0 006.025-2.51z"/></svg><svg viewBox="0 0 21 20" id="search" xmlns="http://www.w3.org/2000/svg"><path d="M9.02 16.472C4.477 16.472.78 12.777.78 8.236S4.476 0 9.02 0c4.545 0 8.242 3.695 8.242 8.236s-3.697 8.236-8.242 8.236zm0-14.91c-3.682 0-6.679 2.994-6.679 6.674s2.997 6.675 6.68 6.675 6.68-2.995 6.68-6.675c0-3.68-2.997-6.675-6.68-6.675zm11.53 18.21a.78.78 0 000-1.105l-3.496-3.493a.782.782 0 00-1.105 1.104l3.496 3.493a.779.779 0 001.105 0z"/></svg><svg viewBox="0 0 24 24" id="search-white" xmlns="http://www.w3.org/2000/svg"><path d="M9.89 19.766C4.438 19.766 0 15.333 0 9.883 0 4.433 4.437 0 9.89 0c5.454 0 9.891 4.434 9.891 9.883 0 5.45-4.437 9.883-9.89 9.883zm0-17.892c-4.42 0-8.015 3.593-8.015 8.01 0 4.415 3.596 8.009 8.016 8.009s8.015-3.594 8.015-8.01-3.595-8.01-8.015-8.01zm13.835 21.852a.936.936 0 000-1.325l-4.195-4.192a.938.938 0 00-1.326 1.325l4.196 4.192a.935.935 0 001.326 0z"/></svg><svg viewBox="0 0 11 6" id="select-arrow" xmlns="http://www.w3.org/2000/svg"><path d="M5.039 5.84L.16.94a.554.554 0 010-.779.545.545 0 01.774 0l4.492 4.512L9.917.162a.546.546 0 01.775 0 .554.554 0 010 .779l-4.879 4.9a.551.551 0 01-.774 0z"/></svg><svg viewBox="0 0 16 16" id="star" xmlns="http://www.w3.org/2000/svg"><g clip-path="url(#bjclip0)"><path d="M.023 6.164a.469.469 0 01.378-.319l4.96-.72L7.58.63a.469.469 0 01.84 0l2.219 4.494 4.96.721a.469.469 0 01.26.8l-3.59 3.498.848 4.94a.469.469 0 01-.68.495L8 13.245l-4.436 2.333a.469.469 0 01-.68-.495l.847-4.94L.14 6.645a.469.469 0 01-.118-.48z"/></g><defs><clipPath id="bjclip0"><path transform="matrix(-1 0 0 1 16 0)" d="M0 0h16v16H0z"/></clipPath></defs></svg><svg viewBox="0 0 23 23" id="tel" xmlns="http://www.w3.org/2000/svg"><path d="M21.463 16.589l-3.194-3.196a2.276 2.276 0 00-1.617-.662c-.64 0-1.242.252-1.698.708l-1.244 1.243c-.966-.537-2.25-1.275-3.583-2.609-1.332-1.332-2.07-2.612-2.61-3.583l1.244-1.244c.926-.927.945-2.415.043-3.316L5.61.737A2.266 2.266 0 003.993.072 2.39 2.39 0 002.324.75C2.05.97.674 2.186.161 4.69c-.718 3.507.932 6.882 5.695 11.648 5.322 5.32 9.865 5.733 11.13 5.733.264 0 .423-.017.465-.021 2.482-.291 3.37-1.393 4.02-2.198.84-1.043.837-2.416-.008-3.264zm-1.06 2.403c-.61.756-1.186 1.47-3.111 1.697-.001 0-.107.011-.306.011-1.132 0-5.211-.384-10.16-5.331C2.433 10.974.891 7.96 1.504 4.966c.448-2.185 1.635-3.114 1.682-3.15l.04-.03.036-.036a1.03 1.03 0 01.73-.307c.25 0 .479.093.648.263L7.834 4.9c.368.367.348.985-.043 1.377L6.384 7.683l-.023.024c-.367.404-.324.95-.122 1.306.583 1.052 1.382 2.493 2.918 4.03 1.532 1.531 2.97 2.33 4.02 2.911.104.06.321.158.593.158.32 0 .615-.136.832-.383l1.321-1.32c.197-.198.456-.306.728-.306.25 0 .48.093.649.261l3.192 3.193c.405.407.238 1.03-.09 1.435zM13.388 3.432c1.178.135 2.566.849 3.534 1.818.978.977 1.693 2.379 1.822 3.57a.686.686 0 101.364-.148c-.164-1.506-1.013-3.189-2.216-4.392-1.192-1.192-2.858-2.04-4.347-2.21a.686.686 0 10-.157 1.362zM12.748 6.304c.637.073 1.519.546 2.096 1.123.583.583 1.056 1.473 1.126 2.117a.686.686 0 101.363-.147c-.119-1.1-.849-2.269-1.52-2.94-.664-.664-1.821-1.39-2.909-1.516a.685.685 0 10-.156 1.363z"/></svg><svg viewBox="0 0 32 32" id="telegram" xmlns="http://www.w3.org/2000/svg"><g clip-path="url(#blclip0)"><path d="M12.556 20.241l-.53 7.446c.758 0 1.086-.326 1.48-.716l3.55-3.393 7.357 5.387c1.35.753 2.3.357 2.664-1.24l4.83-22.63.001-.002c.428-1.994-.721-2.774-2.036-2.285L1.485 13.676c-1.937.752-1.908 1.832-.329 2.322l7.257 2.257L25.271 7.707c.793-.526 1.514-.235.921.29L12.556 20.241z"/></g><defs><clipPath id="blclip0"><path d="M0 0h32v32H0z"/></clipPath></defs></svg><svg viewBox="0 0 25 32" id="user" xmlns="http://www.w3.org/2000/svg"><path d="M22.678 19.943a12.5 12.5 0 00-4.085-3.779 9.242 9.242 0 003.093-6.902C21.686 4.155 17.531 0 12.424 0S3.162 4.155 3.162 9.262a9.242 9.242 0 003.092 6.902 12.5 12.5 0 00-4.085 3.779A12.322 12.322 0 000 26.936V32h24.848v-5.064c0-2.505-.75-4.923-2.17-6.993zM5.101 9.263c0-4.039 3.285-7.324 7.323-7.324s7.323 3.285 7.323 7.323-3.285 7.323-7.323 7.323S5.1 13.3 5.1 9.262zM1.939 30.06v-3.125c0-4.109 2.38-7.794 6.101-9.516a9.205 9.205 0 004.384 1.104c1.585 0 3.078-.4 4.383-1.104 3.721 1.722 6.101 5.407 6.101 9.516v3.125H1.94z"/></svg><svg viewBox="0 0 93 29" id="visa" xmlns="http://www.w3.org/2000/svg"><path d="M37.109.474l-4.71 27.58h7.533L44.646.475h-7.537zM26.083.505l-7.378 18.81-.787-2.84C16.463 13.051 12.332 8.137 7.483 5.04l6.746 23.001 7.971-.013L34.063.499l-7.98.006z"/><path d="M15.058 2.479C14.62.799 13.351.298 11.776.238H.096L0 .787c9.089 2.2 15.103 7.501 17.598 13.875L15.058 2.48zM59.913 5.761c2.465-.038 4.251.5 5.638 1.056l.68.319 1.02-5.978C65.759.6 63.42 0 60.502 0c-7.444 0-12.69 3.741-12.731 9.102-.049 3.961 3.737 6.173 6.597 7.494 2.935 1.353 3.92 2.213 3.906 3.422-.023 1.846-2.34 2.693-4.505 2.693-3.016 0-4.619-.416-7.093-1.444l-.97-.441-1.06 6.173c1.763.771 5.016 1.434 8.393 1.47 7.919 0 13.065-3.697 13.119-9.426.033-3.134-1.976-5.525-6.33-7.487-2.635-1.28-4.247-2.131-4.232-3.422 0-1.147 1.368-2.373 4.317-2.373zM86.583.505h-5.82c-1.808 0-3.153.49-3.947 2.289L65.631 28.07h7.91s1.291-3.399 1.584-4.143c.866 0 8.552.012 9.647.012.224.962.918 4.131.918 4.131h6.988L86.583.505zm-9.29 17.777c.62-1.584 3-7.709 3-7.709-.04.076.615-1.595 1.004-2.633l.508 2.378 1.746 7.964h-6.258z"/></svg><svg viewBox="0 0 24 24" id="x" xmlns="http://www.w3.org/2000/svg"><g clip-path="url(#boclip0)"><path d="M13.407 12.007L23.695 1.719A1 1 0 1022.28.306L11.994 10.593 1.705.305A1 1 0 00.292 1.72L10.58 12.007.292 22.294a1 1 0 001.414 1.414L11.993 13.42l10.288 10.288a1 1 0 001.414-1.414L13.407 12.007z"/></g><defs><clipPath id="boclip0"><path d="M0 0h24v24H0z"/></clipPath></defs></svg><svg viewBox="0 0 32 32" id="youtube" xmlns="http://www.w3.org/2000/svg"><g clip-path="url(#bpclip0)"><path d="M31.292 7.905l.04.262c-.387-1.372-1.43-2.43-2.757-2.816l-.028-.007c-2.495-.677-12.534-.677-12.534-.677S6 4.653 3.48 5.344A4.058 4.058 0 00.703 8.14l-.007.028c-.932 4.868-.939 10.717.041 15.93l-.041-.265c.387 1.372 1.43 2.43 2.757 2.816l.028.007c2.492.678 12.534.678 12.534.678s10.012 0 12.533-.678a4.058 4.058 0 002.779-2.795l.006-.028c.424-2.264.667-4.87.667-7.53l-.001-.295L32 15.7c0-2.663-.243-5.268-.708-7.795zM12.811 20.868v-9.724l8.354 4.87-8.354 4.854z"/></g><defs><clipPath id="bpclip0"><path d="M0 0h32v32H0z"/></clipPath></defs></svg></svg>